solid OpenSCAD_Model
  facet normal 1 -0 0
    outer loop
      vertex 38 -35 1.5
      vertex 38 -35 -1.5
      vertex 38 35 1.5
    endloop
  endfacet
  facet normal 0 0 1
    outer loop
      vertex 38 -35 1.5
      vertex -38 -35 1.5
      vertex 35 -38 1.5
    endloop
  endfacet
  facet normal 0 0 1
    outer loop
      vertex -37.1213 -37.1213 1.5
      vertex -38 -35 1.5
      vertex -37.673 -36.362 1.5
    endloop
  endfacet
  facet normal 0 0 1
    outer loop
      vertex -38 -35 1.5
      vertex 38 -35 1.5
      vertex 38 35 1.5
    endloop
  endfacet
  facet normal 0 0 -1
    outer loop
      vertex 37.1213 -37.1213 -1.5
      vertex 38 -35 -1.5
      vertex 37.673 -36.362 -1.5
    endloop
  endfacet
  facet normal 0 0 1
    outer loop
      vertex 38 -35 1.5
      vertex 35 -38 1.5
      vertex 37.1213 -37.1213 1.5
    endloop
  endfacet
  facet normal 0 0 -1
    outer loop
      vertex -35 38 -1.5
      vertex -37.1213 37.1213 -1.5
      vertex -36.362 37.673 -1.5
    endloop
  endfacet
  facet normal 0 0 -1
    outer loop
      vertex 38 -35 -1.5
      vertex -37.1213 37.1213 -1.5
      vertex 37.1213 37.1213 -1.5
    endloop
  endfacet
  facet normal 0 0 1
    outer loop
      vertex -38 35 1.5
      vertex -37.1213 37.1213 1.5
      vertex -37.673 36.362 1.5
    endloop
  endfacet
  facet normal 0 0 -1
    outer loop
      vertex -37.1213 37.1213 -1.5
      vertex 38 -35 -1.5
      vertex -35 -38 -1.5
    endloop
  endfacet
  facet normal 0.649448 -0.760406 0
    outer loop
      vertex 37.1213 -37.1213 -1.5
      vertex 37.1213 -37.1213 1.5
      vertex 36.7634 -37.4271 1.5
    endloop
  endfacet
  facet normal 0 0 1
    outer loop
      vertex 38 -35 1.5
      vertex 37.1213 -37.1213 1.5
      vertex 37.673 -36.362 1.5
    endloop
  endfacet
  facet normal 0 0 1
    outer loop
      vertex -38 -35 1.5
      vertex -37.1213 37.1213 1.5
      vertex -38 35 1.5
    endloop
  endfacet
  facet normal 0 0 1
    outer loop
      vertex -38 -35 1.5
      vertex 38 35 1.5
      vertex -37.1213 37.1213 1.5
    endloop
  endfacet
  facet normal 0 0 -1
    outer loop
      vertex 37.1213 37.1213 -1.5
      vertex -37.1213 37.1213 -1.5
      vertex 35 38 -1.5
    endloop
  endfacet
  facet normal 0 0 -1
    outer loop
      vertex 38 -35 -1.5
      vertex 37.1213 37.1213 -1.5
      vertex 38 35 -1.5
    endloop
  endfacet
  facet normal 0 -1 -0
    outer loop
      vertex 35 -38 1.5
      vertex -35 -38 -1.5
      vertex 35 -38 -1.5
    endloop
  endfacet
  facet normal 0 0 -1
    outer loop
      vertex -35 -38 -1.5
      vertex 38 -35 -1.5
      vertex 35 -38 -1.5
    endloop
  endfacet
  facet normal 0 -1 0
    outer loop
      vertex -35 -38 -1.5
      vertex 35 -38 1.5
      vertex -35 -38 1.5
    endloop
  endfacet
  facet normal 0 0 1
    outer loop
      vertex 35 -38 1.5
      vertex -38 -35 1.5
      vertex -35 -38 1.5
    endloop
  endfacet
  facet normal 0 -0 -1
    outer loop
      vertex -37.1213 37.1213 -1.5
      vertex -35 -38 -1.5
      vertex -38 -35 -1.5
    endloop
  endfacet
  facet normal 0 0 1
    outer loop
      vertex -37.1213 -37.1213 1.5
      vertex -37.673 -36.362 1.5
      vertex -37.4271 -36.7634 1.5
    endloop
  endfacet
  facet normal 0 0 -1
    outer loop
      vertex 37.1213 -37.1213 -1.5
      vertex 37.673 -36.362 -1.5
      vertex 37.4271 -36.7634 -1.5
    endloop
  endfacet
  facet normal 0 0 1
    outer loop
      vertex 38 -35 1.5
      vertex 37.673 -36.362 1.5
      vertex 37.8532 -35.9271 1.5
    endloop
  endfacet
  facet normal 0 0 1
    outer loop
      vertex -38 35 1.5
      vertex -37.673 36.362 1.5
      vertex -37.8532 35.9271 1.5
    endloop
  endfacet
  facet normal -1 0 0
    outer loop
      vertex -38 -35 -1.5
      vertex -38 -35 1.5
      vertex -38 35 1.5
    endloop
  endfacet
  facet normal -0 0 -1
    outer loop
      vertex 35 38 -1.5
      vertex -37.1213 37.1213 -1.5
      vertex -35 38 -1.5
    endloop
  endfacet
  facet normal -0 0 1
    outer loop
      vertex -37.1213 37.1213 1.5
      vertex 38 35 1.5
      vertex 36.362 37.673 1.5
    endloop
  endfacet
  facet normal 0 0 -1
    outer loop
      vertex 38 35 -1.5
      vertex 37.1213 37.1213 -1.5
      vertex 37.673 36.362 -1.5
    endloop
  endfacet
  facet normal 1 0 0
    outer loop
      vertex 38 35 1.5
      vertex 38 -35 -1.5
      vertex 38 35 -1.5
    endloop
  endfacet
  facet normal 0 0 1
    outer loop
      vertex 37.1213 -37.1213 1.5
      vertex 35 -38 1.5
      vertex 36.362 -37.673 1.5
    endloop
  endfacet
  facet normal 0 0 -1
    outer loop
      vertex 35 -38 -1.5
      vertex 38 -35 -1.5
      vertex 37.1213 -37.1213 -1.5
    endloop
  endfacet
  facet normal 0 0 1
    outer loop
      vertex 36.362 -37.673 1.5
      vertex 35 -38 1.5
      vertex 35.9271 -37.8532 1.5
    endloop
  endfacet
  facet normal 0.649448 -0.760406 0
    outer loop
      vertex 37.1213 -37.1213 -1.5
      vertex 36.7634 -37.4271 1.5
      vertex 36.7634 -37.4271 -1.5
    endloop
  endfacet
  facet normal -0.649448 -0.760406 -0
    outer loop
      vertex -37.1213 -37.1213 1.5
      vertex -37.1213 -37.1213 -1.5
      vertex -36.7634 -37.4271 1.5
    endloop
  endfacet
  facet normal 0 0 1
    outer loop
      vertex -35 -38 1.5
      vertex -38 -35 1.5
      vertex -37.1213 -37.1213 1.5
    endloop
  endfacet
  facet normal 0.923879 -0.382684 0
    outer loop
      vertex 37.8532 -35.9271 1.5
      vertex 37.673 -36.362 -1.5
      vertex 37.8532 -35.9271 -1.5
    endloop
  endfacet
  facet normal 0 0 -1
    outer loop
      vertex 37.673 -36.362 -1.5
      vertex 38 -35 -1.5
      vertex 37.8532 -35.9271 -1.5
    endloop
  endfacet
  facet normal 0 0 1
    outer loop
      vertex -37.673 36.362 1.5
      vertex -37.1213 37.1213 1.5
      vertex -37.4271 36.7634 1.5
    endloop
  endfacet
  facet normal -0.85264 0.522499 0
    outer loop
      vertex -37.673 36.362 1.5
      vertex -37.4271 36.7634 1.5
      vertex -37.673 36.362 -1.5
    endloop
  endfacet
  facet normal 0 0 -1
    outer loop
      vertex -37.1213 37.1213 -1.5
      vertex -38 -35 -1.5
      vertex -38 35 -1.5
    endloop
  endfacet
  facet normal -1 0 0
    outer loop
      vertex -38 -35 -1.5
      vertex -38 35 1.5
      vertex -38 35 -1.5
    endloop
  endfacet
  facet normal 0 0 1
    outer loop
      vertex 36.362 37.673 1.5
      vertex 38 35 1.5
      vertex 37.4271 36.7634 1.5
    endloop
  endfacet
  facet normal -0 0 1
    outer loop
      vertex -35 38 1.5
      vertex 36.362 37.673 1.5
      vertex 35 38 1.5
    endloop
  endfacet
  facet normal 0 1 0
    outer loop
      vertex 35 38 -1.5
      vertex -35 38 -1.5
      vertex -35 38 1.5
    endloop
  endfacet
  facet normal 0 0 -1
    outer loop
      vertex -35 38 -1.5
      vertex -36.362 37.673 -1.5
      vertex -35.9271 37.8532 -1.5
    endloop
  endfacet
  facet normal 0.85264 0.522499 -0
    outer loop
      vertex 37.673 36.362 -1.5
      vertex 37.4271 36.7634 1.5
      vertex 37.673 36.362 1.5
    endloop
  endfacet
  facet normal 0 0 -1
    outer loop
      vertex 38 35 -1.5
      vertex 37.673 36.362 -1.5
      vertex 37.8532 35.9271 -1.5
    endloop
  endfacet
  facet normal 0.923879 -0.382684 0
    outer loop
      vertex 37.8532 -35.9271 1.5
      vertex 37.673 -36.362 1.5
      vertex 37.673 -36.362 -1.5
    endloop
  endfacet
  facet normal 0.85264 -0.522499 0
    outer loop
      vertex 37.673 -36.362 -1.5
      vertex 37.673 -36.362 1.5
      vertex 37.4271 -36.7634 1.5
    endloop
  endfacet
  facet normal 0 0 1
    outer loop
      vertex 37.673 -36.362 1.5
      vertex 37.1213 -37.1213 1.5
      vertex 37.4271 -36.7634 1.5
    endloop
  endfacet
  facet normal 0.760406 -0.649448 0
    outer loop
      vertex 37.1213 -37.1213 1.5
      vertex 37.1213 -37.1213 -1.5
      vertex 37.4271 -36.7634 1.5
    endloop
  endfacet
  facet normal 0 0 1
    outer loop
      vertex 37.1213 -37.1213 1.5
      vertex 36.362 -37.673 1.5
      vertex 36.7634 -37.4271 1.5
    endloop
  endfacet
  facet normal 0.522499 -0.85264 0
    outer loop
      vertex 36.7634 -37.4271 1.5
      vertex 36.362 -37.673 1.5
      vertex 36.362 -37.673 -1.5
    endloop
  endfacet
  facet normal 0 0 1
    outer loop
      vertex 35.9271 -37.8532 1.5
      vertex 35 -38 1.5
      vertex 35.4693 -37.9631 1.5
    endloop
  endfacet
  facet normal 0.382684 -0.923879 0
    outer loop
      vertex 36.362 -37.673 1.5
      vertex 35.9271 -37.8532 1.5
      vertex 36.362 -37.673 -1.5
    endloop
  endfacet
  facet normal 0.233444 -0.97237 0
    outer loop
      vertex 35.9271 -37.8532 1.5
      vertex 35.4693 -37.9631 1.5
      vertex 35.9271 -37.8532 -1.5
    endloop
  endfacet
  facet normal 0 0 -1
    outer loop
      vertex 35 -38 -1.5
      vertex 37.1213 -37.1213 -1.5
      vertex 36.362 -37.673 -1.5
    endloop
  endfacet
  facet normal 0 0 1
    outer loop
      vertex -37.673 -36.362 1.5
      vertex -38 -35 1.5
      vertex -37.8532 -35.9271 1.5
    endloop
  endfacet
  facet normal -0.923879 -0.382684 -0
    outer loop
      vertex -37.673 -36.362 1.5
      vertex -37.8532 -35.9271 1.5
      vertex -37.673 -36.362 -1.5
    endloop
  endfacet
  facet normal 0 0 -1
    outer loop
      vertex -38 -35 -1.5
      vertex -35 -38 -1.5
      vertex -37.1213 -37.1213 -1.5
    endloop
  endfacet
  facet normal 0 0 -1
    outer loop
      vertex -37.1213 -37.1213 -1.5
      vertex -35 -38 -1.5
      vertex -36.362 -37.673 -1.5
    endloop
  endfacet
  facet normal -0.382684 -0.923879 -0
    outer loop
      vertex -36.362 -37.673 1.5
      vertex -36.362 -37.673 -1.5
      vertex -35.9271 -37.8532 1.5
    endloop
  endfacet
  facet normal 0 0 1
    outer loop
      vertex -35 -38 1.5
      vertex -37.1213 -37.1213 1.5
      vertex -36.362 -37.673 1.5
    endloop
  endfacet
  facet normal 0.996917 -0.0784609 0
    outer loop
      vertex 38 -35 -1.5
      vertex 38 -35 1.5
      vertex 37.9631 -35.4693 1.5
    endloop
  endfacet
  facet normal 0 0 1
    outer loop
      vertex 38 -35 1.5
      vertex 37.8532 -35.9271 1.5
      vertex 37.9631 -35.4693 1.5
    endloop
  endfacet
  facet normal -0.760406 0.649448 0
    outer loop
      vertex -37.1213 37.1213 1.5
      vertex -37.1213 37.1213 -1.5
      vertex -37.4271 36.7634 1.5
    endloop
  endfacet
  facet normal 0 0 -1
    outer loop
      vertex -37.1213 37.1213 -1.5
      vertex -38 35 -1.5
      vertex -37.673 36.362 -1.5
    endloop
  endfacet
  facet normal -0.760406 0.649448 0
    outer loop
      vertex -37.4271 36.7634 1.5
      vertex -37.1213 37.1213 -1.5
      vertex -37.4271 36.7634 -1.5
    endloop
  endfacet
  facet normal 0 0 1
    outer loop
      vertex -38 35 1.5
      vertex -37.8532 35.9271 1.5
      vertex -37.9631 35.4693 1.5
    endloop
  endfacet
  facet normal -0.996917 0.0784609 0
    outer loop
      vertex -38 35 -1.5
      vertex -37.9631 35.4693 1.5
      vertex -37.9631 35.4693 -1.5
    endloop
  endfacet
  facet normal -0.923879 0.382684 0
    outer loop
      vertex -37.8532 35.9271 1.5
      vertex -37.673 36.362 1.5
      vertex -37.673 36.362 -1.5
    endloop
  endfacet
  facet normal 0 0 1
    outer loop
      vertex 36.362 37.673 1.5
      vertex 37.4271 36.7634 1.5
      vertex 36.7634 37.4271 1.5
    endloop
  endfacet
  facet normal 0 0 -1
    outer loop
      vertex 37.1213 37.1213 -1.5
      vertex 35 38 -1.5
      vertex 36.362 37.673 -1.5
    endloop
  endfacet
  facet normal 0 0 -1
    outer loop
      vertex -36.362 37.673 -1.5
      vertex -37.1213 37.1213 -1.5
      vertex -36.7634 37.4271 -1.5
    endloop
  endfacet
  facet normal -0.522499 0.85264 0
    outer loop
      vertex -36.362 37.673 -1.5
      vertex -36.7634 37.4271 -1.5
      vertex -36.362 37.673 1.5
    endloop
  endfacet
  facet normal 0 0 1
    outer loop
      vertex -37.1213 37.1213 1.5
      vertex 36.362 37.673 1.5
      vertex -35 38 1.5
    endloop
  endfacet
  facet normal 0 1 -0
    outer loop
      vertex 35 38 -1.5
      vertex -35 38 1.5
      vertex 35 38 1.5
    endloop
  endfacet
  facet normal 0 0 -1
    outer loop
      vertex 37.673 36.362 -1.5
      vertex 37.1213 37.1213 -1.5
      vertex 37.4271 36.7634 -1.5
    endloop
  endfacet
  facet normal 0.760406 0.649448 0
    outer loop
      vertex 37.4271 36.7634 1.5
      vertex 37.1213 37.1213 -1.5
      vertex 37.1213 37.1213 1.5
    endloop
  endfacet
  facet normal 0 0 1
    outer loop
      vertex 37.4271 36.7634 1.5
      vertex 38 35 1.5
      vertex 37.673 36.362 1.5
    endloop
  endfacet
  facet normal 0 0 -1
    outer loop
      vertex 38 35 -1.5
      vertex 37.8532 35.9271 -1.5
      vertex 37.9631 35.4693 -1.5
    endloop
  endfacet
  facet normal 0.97237 -0.233444 0
    outer loop
      vertex 37.9631 -35.4693 1.5
      vertex 37.8532 -35.9271 -1.5
      vertex 37.9631 -35.4693 -1.5
    endloop
  endfacet
  facet normal 0.97237 -0.233444 0
    outer loop
      vertex 37.9631 -35.4693 1.5
      vertex 37.8532 -35.9271 1.5
      vertex 37.8532 -35.9271 -1.5
    endloop
  endfacet
  facet normal 0.85264 -0.522499 0
    outer loop
      vertex 37.673 -36.362 -1.5
      vertex 37.4271 -36.7634 1.5
      vertex 37.4271 -36.7634 -1.5
    endloop
  endfacet
  facet normal 0.760406 -0.649448 0
    outer loop
      vertex 37.4271 -36.7634 1.5
      vertex 37.1213 -37.1213 -1.5
      vertex 37.4271 -36.7634 -1.5
    endloop
  endfacet
  facet normal 0.0784609 -0.996917 0
    outer loop
      vertex 35 -38 1.5
      vertex 35 -38 -1.5
      vertex 35.4693 -37.9631 1.5
    endloop
  endfacet
  facet normal 0.0784609 -0.996917 0
    outer loop
      vertex 35.4693 -37.9631 1.5
      vertex 35 -38 -1.5
      vertex 35.4693 -37.9631 -1.5
    endloop
  endfacet
  facet normal 0.522499 -0.85264 0
    outer loop
      vertex 36.7634 -37.4271 1.5
      vertex 36.362 -37.673 -1.5
      vertex 36.7634 -37.4271 -1.5
    endloop
  endfacet
  facet normal 0 0 -1
    outer loop
      vertex 36.362 -37.673 -1.5
      vertex 37.1213 -37.1213 -1.5
      vertex 36.7634 -37.4271 -1.5
    endloop
  endfacet
  facet normal 0 0 -1
    outer loop
      vertex 35 -38 -1.5
      vertex 36.362 -37.673 -1.5
      vertex 35.9271 -37.8532 -1.5
    endloop
  endfacet
  facet normal 0.382684 -0.923879 0
    outer loop
      vertex 36.362 -37.673 -1.5
      vertex 35.9271 -37.8532 1.5
      vertex 35.9271 -37.8532 -1.5
    endloop
  endfacet
  facet normal 0 0 1
    outer loop
      vertex -37.8532 -35.9271 1.5
      vertex -38 -35 1.5
      vertex -37.9631 -35.4693 1.5
    endloop
  endfacet
  facet normal 0 0 -1
    outer loop
      vertex -38 -35 -1.5
      vertex -37.1213 -37.1213 -1.5
      vertex -37.673 -36.362 -1.5
    endloop
  endfacet
  facet normal -0.97237 -0.233444 -0
    outer loop
      vertex -37.8532 -35.9271 1.5
      vertex -37.9631 -35.4693 1.5
      vertex -37.8532 -35.9271 -1.5
    endloop
  endfacet
  facet normal -0.760406 -0.649448 0
    outer loop
      vertex -37.1213 -37.1213 -1.5
      vertex -37.1213 -37.1213 1.5
      vertex -37.4271 -36.7634 1.5
    endloop
  endfacet
  facet normal -0.760406 -0.649448 0
    outer loop
      vertex -37.1213 -37.1213 -1.5
      vertex -37.4271 -36.7634 1.5
      vertex -37.4271 -36.7634 -1.5
    endloop
  endfacet
  facet normal -0.85264 -0.522499 0
    outer loop
      vertex -37.4271 -36.7634 1.5
      vertex -37.673 -36.362 1.5
      vertex -37.673 -36.362 -1.5
    endloop
  endfacet
  facet normal 0 0 -1
    outer loop
      vertex -36.362 -37.673 -1.5
      vertex -35 -38 -1.5
      vertex -35.9271 -37.8532 -1.5
    endloop
  endfacet
  facet normal 0 0 1
    outer loop
      vertex -36.362 -37.673 1.5
      vertex -37.1213 -37.1213 1.5
      vertex -36.7634 -37.4271 1.5
    endloop
  endfacet
  facet normal -0.522499 -0.85264 -0
    outer loop
      vertex -36.362 -37.673 1.5
      vertex -36.7634 -37.4271 1.5
      vertex -36.362 -37.673 -1.5
    endloop
  endfacet
  facet normal 0 0 -1
    outer loop
      vertex -37.1213 -37.1213 -1.5
      vertex -36.362 -37.673 -1.5
      vertex -36.7634 -37.4271 -1.5
    endloop
  endfacet
  facet normal -0.233444 -0.97237 -0
    outer loop
      vertex -35.9271 -37.8532 1.5
      vertex -35.9271 -37.8532 -1.5
      vertex -35.4693 -37.9631 1.5
    endloop
  endfacet
  facet normal 0 0 1
    outer loop
      vertex -35 -38 1.5
      vertex -36.362 -37.673 1.5
      vertex -35.9271 -37.8532 1.5
    endloop
  endfacet
  facet normal -0.97237 0.233444 0
    outer loop
      vertex -37.9631 35.4693 1.5
      vertex -37.8532 35.9271 1.5
      vertex -37.8532 35.9271 -1.5
    endloop
  endfacet
  facet normal -0.996917 0.0784609 0
    outer loop
      vertex -38 35 -1.5
      vertex -38 35 1.5
      vertex -37.9631 35.4693 1.5
    endloop
  endfacet
  facet normal 0 0 -1
    outer loop
      vertex -37.1213 37.1213 -1.5
      vertex -37.673 36.362 -1.5
      vertex -37.4271 36.7634 -1.5
    endloop
  endfacet
  facet normal -0.85264 0.522499 0
    outer loop
      vertex -37.673 36.362 -1.5
      vertex -37.4271 36.7634 1.5
      vertex -37.4271 36.7634 -1.5
    endloop
  endfacet
  facet normal -0.923879 0.382684 0
    outer loop
      vertex -37.8532 35.9271 1.5
      vertex -37.673 36.362 -1.5
      vertex -37.8532 35.9271 -1.5
    endloop
  endfacet
  facet normal 0 0 -1
    outer loop
      vertex -37.673 36.362 -1.5
      vertex -38 35 -1.5
      vertex -37.8532 35.9271 -1.5
    endloop
  endfacet
  facet normal 0.382684 0.923879 0
    outer loop
      vertex 36.362 37.673 1.5
      vertex 36.362 37.673 -1.5
      vertex 35.9271 37.8532 -1.5
    endloop
  endfacet
  facet normal 0 0 -1
    outer loop
      vertex 36.362 37.673 -1.5
      vertex 35 38 -1.5
      vertex 35.9271 37.8532 -1.5
    endloop
  endfacet
  facet normal 0 0 -1
    outer loop
      vertex 37.1213 37.1213 -1.5
      vertex 36.362 37.673 -1.5
      vertex 36.7634 37.4271 -1.5
    endloop
  endfacet
  facet normal 0.522499 0.85264 -0
    outer loop
      vertex 36.362 37.673 -1.5
      vertex 36.362 37.673 1.5
      vertex 36.7634 37.4271 -1.5
    endloop
  endfacet
  facet normal -0.649448 0.760406 0
    outer loop
      vertex -37.1213 37.1213 -1.5
      vertex -37.1213 37.1213 1.5
      vertex -36.7634 37.4271 -1.5
    endloop
  endfacet
  facet normal 0 0 1
    outer loop
      vertex -37.1213 37.1213 1.5
      vertex -35 38 1.5
      vertex -36.362 37.673 1.5
    endloop
  endfacet
  facet normal -0.649448 0.760406 0
    outer loop
      vertex -36.7634 37.4271 -1.5
      vertex -37.1213 37.1213 1.5
      vertex -36.7634 37.4271 1.5
    endloop
  endfacet
  facet normal 0 0 -1
    outer loop
      vertex -35 38 -1.5
      vertex -35.9271 37.8532 -1.5
      vertex -35.4693 37.9631 -1.5
    endloop
  endfacet
  facet normal -0.0784609 0.996917 0
    outer loop
      vertex -35 38 1.5
      vertex -35.4693 37.9631 -1.5
      vertex -35.4693 37.9631 1.5
    endloop
  endfacet
  facet normal -0.382684 0.923879 0
    outer loop
      vertex -35.9271 37.8532 -1.5
      vertex -36.362 37.673 -1.5
      vertex -36.362 37.673 1.5
    endloop
  endfacet
  facet normal 0.382684 0.923879 0
    outer loop
      vertex 36.362 37.673 1.5
      vertex 35.9271 37.8532 -1.5
      vertex 35.9271 37.8532 1.5
    endloop
  endfacet
  facet normal 0.0784609 0.996917 -0
    outer loop
      vertex 35 38 -1.5
      vertex 35 38 1.5
      vertex 35.4693 37.9631 -1.5
    endloop
  endfacet
  facet normal 0.760406 0.649448 0
    outer loop
      vertex 37.1213 37.1213 -1.5
      vertex 37.4271 36.7634 1.5
      vertex 37.4271 36.7634 -1.5
    endloop
  endfacet
  facet normal 0.85264 0.522499 0
    outer loop
      vertex 37.4271 36.7634 1.5
      vertex 37.673 36.362 -1.5
      vertex 37.4271 36.7634 -1.5
    endloop
  endfacet
  facet normal 0.923879 0.382684 -0
    outer loop
      vertex 37.8532 35.9271 -1.5
      vertex 37.673 36.362 1.5
      vertex 37.8532 35.9271 1.5
    endloop
  endfacet
  facet normal 0.923879 0.382684 0
    outer loop
      vertex 37.8532 35.9271 -1.5
      vertex 37.673 36.362 -1.5
      vertex 37.673 36.362 1.5
    endloop
  endfacet
  facet normal 0 0 1
    outer loop
      vertex 37.673 36.362 1.5
      vertex 38 35 1.5
      vertex 37.8532 35.9271 1.5
    endloop
  endfacet
  facet normal 0.996917 0.0784609 0
    outer loop
      vertex 38 35 1.5
      vertex 38 35 -1.5
      vertex 37.9631 35.4693 -1.5
    endloop
  endfacet
  facet normal 0 0 -1
    outer loop
      vertex 37.8532 -35.9271 -1.5
      vertex 38 -35 -1.5
      vertex 37.9631 -35.4693 -1.5
    endloop
  endfacet
  facet normal 0.996917 -0.0784609 0
    outer loop
      vertex 38 -35 -1.5
      vertex 37.9631 -35.4693 1.5
      vertex 37.9631 -35.4693 -1.5
    endloop
  endfacet
  facet normal 0 0 -1
    outer loop
      vertex 35 -38 -1.5
      vertex 35.9271 -37.8532 -1.5
      vertex 35.4693 -37.9631 -1.5
    endloop
  endfacet
  facet normal 0.233444 -0.97237 0
    outer loop
      vertex 35.9271 -37.8532 -1.5
      vertex 35.4693 -37.9631 1.5
      vertex 35.4693 -37.9631 -1.5
    endloop
  endfacet
  facet normal -0.996917 -0.0784609 -0
    outer loop
      vertex -38 -35 1.5
      vertex -38 -35 -1.5
      vertex -37.9631 -35.4693 1.5
    endloop
  endfacet
  facet normal -0.996917 -0.0784609 -0
    outer loop
      vertex -37.9631 -35.4693 1.5
      vertex -38 -35 -1.5
      vertex -37.9631 -35.4693 -1.5
    endloop
  endfacet
  facet normal 0 0 -1
    outer loop
      vertex -38 -35 -1.5
      vertex -37.673 -36.362 -1.5
      vertex -37.8532 -35.9271 -1.5
    endloop
  endfacet
  facet normal -0.923879 -0.382684 0
    outer loop
      vertex -37.673 -36.362 -1.5
      vertex -37.8532 -35.9271 1.5
      vertex -37.8532 -35.9271 -1.5
    endloop
  endfacet
  facet normal -0.85264 -0.522499 -0
    outer loop
      vertex -37.4271 -36.7634 1.5
      vertex -37.673 -36.362 -1.5
      vertex -37.4271 -36.7634 -1.5
    endloop
  endfacet
  facet normal 0 0 -1
    outer loop
      vertex -37.673 -36.362 -1.5
      vertex -37.1213 -37.1213 -1.5
      vertex -37.4271 -36.7634 -1.5
    endloop
  endfacet
  facet normal -0.522499 -0.85264 0
    outer loop
      vertex -36.362 -37.673 -1.5
      vertex -36.7634 -37.4271 1.5
      vertex -36.7634 -37.4271 -1.5
    endloop
  endfacet
  facet normal -0.649448 -0.760406 -0
    outer loop
      vertex -36.7634 -37.4271 1.5
      vertex -37.1213 -37.1213 -1.5
      vertex -36.7634 -37.4271 -1.5
    endloop
  endfacet
  facet normal 0 0 -1
    outer loop
      vertex -35.9271 -37.8532 -1.5
      vertex -35 -38 -1.5
      vertex -35.4693 -37.9631 -1.5
    endloop
  endfacet
  facet normal -0.382684 -0.923879 -0
    outer loop
      vertex -35.9271 -37.8532 1.5
      vertex -36.362 -37.673 -1.5
      vertex -35.9271 -37.8532 -1.5
    endloop
  endfacet
  facet normal -0.0784609 -0.996917 0
    outer loop
      vertex -35 -38 -1.5
      vertex -35 -38 1.5
      vertex -35.4693 -37.9631 1.5
    endloop
  endfacet
  facet normal 0 0 1
    outer loop
      vertex -35 -38 1.5
      vertex -35.9271 -37.8532 1.5
      vertex -35.4693 -37.9631 1.5
    endloop
  endfacet
  facet normal -0.97237 0.233444 0
    outer loop
      vertex -37.9631 35.4693 1.5
      vertex -37.8532 35.9271 -1.5
      vertex -37.9631 35.4693 -1.5
    endloop
  endfacet
  facet normal 0 0 -1
    outer loop
      vertex -37.8532 35.9271 -1.5
      vertex -38 35 -1.5
      vertex -37.9631 35.4693 -1.5
    endloop
  endfacet
  facet normal 0.649448 0.760406 0
    outer loop
      vertex 37.1213 37.1213 -1.5
      vertex 36.7634 37.4271 -1.5
      vertex 36.7634 37.4271 1.5
    endloop
  endfacet
  facet normal 0.522499 0.85264 -0
    outer loop
      vertex 36.7634 37.4271 -1.5
      vertex 36.362 37.673 1.5
      vertex 36.7634 37.4271 1.5
    endloop
  endfacet
  facet normal -0.233444 0.97237 0
    outer loop
      vertex -35.4693 37.9631 -1.5
      vertex -35.9271 37.8532 -1.5
      vertex -35.9271 37.8532 1.5
    endloop
  endfacet
  facet normal -0.0784609 0.996917 0
    outer loop
      vertex -35 38 1.5
      vertex -35 38 -1.5
      vertex -35.4693 37.9631 -1.5
    endloop
  endfacet
  facet normal 0 0 1
    outer loop
      vertex -37.1213 37.1213 1.5
      vertex -36.362 37.673 1.5
      vertex -36.7634 37.4271 1.5
    endloop
  endfacet
  facet normal -0.522499 0.85264 0
    outer loop
      vertex -36.362 37.673 1.5
      vertex -36.7634 37.4271 -1.5
      vertex -36.7634 37.4271 1.5
    endloop
  endfacet
  facet normal -0.382684 0.923879 0
    outer loop
      vertex -35.9271 37.8532 -1.5
      vertex -36.362 37.673 1.5
      vertex -35.9271 37.8532 1.5
    endloop
  endfacet
  facet normal 0 0 1
    outer loop
      vertex -36.362 37.673 1.5
      vertex -35 38 1.5
      vertex -35.9271 37.8532 1.5
    endloop
  endfacet
  facet normal 0 0 1
    outer loop
      vertex 35 38 1.5
      vertex 35.9271 37.8532 1.5
      vertex 35.4693 37.9631 1.5
    endloop
  endfacet
  facet normal 0 0 1
    outer loop
      vertex 35 38 1.5
      vertex 36.362 37.673 1.5
      vertex 35.9271 37.8532 1.5
    endloop
  endfacet
  facet normal 0.233444 0.97237 0
    outer loop
      vertex 35.9271 37.8532 1.5
      vertex 35.9271 37.8532 -1.5
      vertex 35.4693 37.9631 -1.5
    endloop
  endfacet
  facet normal 0 0 -1
    outer loop
      vertex 35.9271 37.8532 -1.5
      vertex 35 38 -1.5
      vertex 35.4693 37.9631 -1.5
    endloop
  endfacet
  facet normal 0.97237 0.233444 -0
    outer loop
      vertex 37.9631 35.4693 -1.5
      vertex 37.8532 35.9271 1.5
      vertex 37.9631 35.4693 1.5
    endloop
  endfacet
  facet normal 0.97237 0.233444 0
    outer loop
      vertex 37.9631 35.4693 -1.5
      vertex 37.8532 35.9271 -1.5
      vertex 37.8532 35.9271 1.5
    endloop
  endfacet
  facet normal 0 0 -1
    outer loop
      vertex -38 -35 -1.5
      vertex -37.8532 -35.9271 -1.5
      vertex -37.9631 -35.4693 -1.5
    endloop
  endfacet
  facet normal -0.97237 -0.233444 0
    outer loop
      vertex -37.8532 -35.9271 -1.5
      vertex -37.9631 -35.4693 1.5
      vertex -37.9631 -35.4693 -1.5
    endloop
  endfacet
  facet normal -0.0784609 -0.996917 0
    outer loop
      vertex -35 -38 -1.5
      vertex -35.4693 -37.9631 1.5
      vertex -35.4693 -37.9631 -1.5
    endloop
  endfacet
  facet normal -0.233444 -0.97237 -0
    outer loop
      vertex -35.4693 -37.9631 1.5
      vertex -35.9271 -37.8532 -1.5
      vertex -35.4693 -37.9631 -1.5
    endloop
  endfacet
  facet normal 0.649448 0.760406 -0
    outer loop
      vertex 37.1213 37.1213 -1.5
      vertex 36.7634 37.4271 1.5
      vertex 37.1213 37.1213 1.5
    endloop
  endfacet
  facet normal 0 0 1
    outer loop
      vertex 36.7634 37.4271 1.5
      vertex 37.4271 36.7634 1.5
      vertex 37.1213 37.1213 1.5
    endloop
  endfacet
  facet normal -0.233444 0.97237 0
    outer loop
      vertex -35.4693 37.9631 -1.5
      vertex -35.9271 37.8532 1.5
      vertex -35.4693 37.9631 1.5
    endloop
  endfacet
  facet normal 0 0 1
    outer loop
      vertex -35.9271 37.8532 1.5
      vertex -35 38 1.5
      vertex -35.4693 37.9631 1.5
    endloop
  endfacet
  facet normal 0.233444 0.97237 0
    outer loop
      vertex 35.9271 37.8532 1.5
      vertex 35.4693 37.9631 -1.5
      vertex 35.4693 37.9631 1.5
    endloop
  endfacet
  facet normal 0.0784609 0.996917 -0
    outer loop
      vertex 35.4693 37.9631 -1.5
      vertex 35 38 1.5
      vertex 35.4693 37.9631 1.5
    endloop
  endfacet
  facet normal 0 0 1
    outer loop
      vertex 37.8532 35.9271 1.5
      vertex 38 35 1.5
      vertex 37.9631 35.4693 1.5
    endloop
  endfacet
  facet normal 0.996917 0.0784609 0
    outer loop
      vertex 38 35 1.5
      vertex 37.9631 35.4693 -1.5
      vertex 37.9631 35.4693 1.5
    endloop
  endfacet
endsolid OpenSCAD_Model
